<svg xmlns="http://www.w3.org/2000/svg" version="1.1" xmlns:xlink="http://www.w3.org/1999/xlink" width="512" height="512" x="0" y="0" viewBox="0 0 24 24" style="enable-background:new 0 0 512 512" xml:space="preserve">
  <g>
    <path d="M12 0C5.383 0 0 5.383 0 12s5.383 12 12 12 12-5.383 12-12S18.617 0 12 0Zm8 14h-4.571v-3.216C14.208 10.263 13.09 10.007 12 10c-1.146-.007-2.26.261-3.429.784V14H4v-2.455c0-.878.37-1.664.946-2.24C6.44 7.811 9.212 7.013 12 7c2.731-.012 5.478.728 7.055 2.305.576.576.946 1.362.945 2.24V14Z" fill="#ff0000" opacity="1" data-original="#000000"></path>
  </g>
</svg>
