<?xml version="1.0" standalone="no"?>
<!DOCTYPE svg PUBLIC "-//W3C//DTD SVG 20010904//EN"
 "http://www.w3.org/TR/2001/REC-SVG-20010904/DTD/svg10.dtd">
<svg version="1.0" xmlns="http://www.w3.org/2000/svg"
 width="512.000000pt" height="512.000000pt" viewBox="0 0 512.000000 512.000000"
 preserveAspectRatio="xMidYMid meet">

<g transform="translate(0.000000,512.000000) scale(0.100000,-0.100000)"
fill="red" stroke="none">
<path d="M2354 5110 c-500 -42 -969 -226 -1374 -538 -109 -85 -347 -323 -432
-432 -436 -566 -618 -1251 -518 -1950 64 -440 239 -850 519 -1210 81 -105 311
-337 410 -415 563 -442 1238 -630 1940 -539 451 58 890 246 1261 538 97 76
320 299 396 396 292 370 476 804 540 1270 23 169 23 491 0 659 -40 295 -111
528 -241 796 -340 699 -985 1205 -1750 1374 -216 48 -535 69 -751 51z m320
-1175 c51 -25 104 -78 127 -129 17 -38 19 -74 19 -516 l0 -475 -24 -50 c-25
-56 -77 -107 -134 -131 -48 -21 -156 -22 -203 -2 -55 24 -110 78 -135 133
l-24 50 0 472 c0 307 4 482 11 500 27 72 84 128 164 160 43 18 152 11 199 -12z
m-686 -492 c28 -17 59 -48 77 -77 26 -42 30 -59 30 -115 -1 -82 -22 -126 -100
-201 -453 -440 -288 -1183 308 -1386 365 -124 786 38 975 376 134 239 141 533
20 775 -45 88 -83 140 -173 236 -63 66 -84 96 -95 132 -27 100 15 206 104 262
42 26 59 30 115 30 87 -1 131 -25 231 -126 249 -253 382 -600 366 -954 -15
-337 -141 -621 -381 -860 -186 -186 -396 -297 -670 -357 -94 -20 -390 -17
-495 6 -741 159 -1186 904 -975 1631 78 268 310 592 468 652 52 20 142 9 195
-24z"/>
</g>
</svg>
